<?xml version="1.0" encoding="utf-8"?>
<!-- Generator: Adobe Illustrator 16.0.4, SVG Export Plug-In . SVG Version: 6.00 Build 0)  -->
<!DOCTYPE svg PUBLIC "-//W3C//DTD SVG 1.1//EN" "http://www.w3.org/Graphics/SVG/1.1/DTD/svg11.dtd">
<svg version="1.1" id="Layer_1" xmlns="http://www.w3.org/2000/svg" xmlns:xlink="http://www.w3.org/1999/xlink" x="0px" y="0px"
	 width="24px" height="24px" viewBox="0 0 24 24" enable-background="new 0 0 24 24" xml:space="preserve">
<path fill="#606C76" d="M12,0C5.375,0,0,5.376,0,12c0,6.623,5.375,12,12,12c6.623,0,12-5.377,12-12C24,5.376,18.623,0,12,0z M12,3.6
	c1.992,0,3.6,1.608,3.6,3.601s-1.607,3.6-3.6,3.6S8.4,9.192,8.4,7.2S10.008,3.6,12,3.6z M12,20.64c-3,0-5.652-1.536-7.2-3.862
	c0.037-2.389,4.8-3.697,7.2-3.697c2.389,0,7.163,1.309,7.199,3.697C17.651,19.104,15,20.64,12,20.64z"/>
<path fill="none" d="M0,0h24v24H0V0z"/>
</svg>
