<?xml version="1.0" encoding="utf-8"?>
<!-- Generator: Adobe Illustrator 16.0.4, SVG Export Plug-In . SVG Version: 6.00 Build 0)  -->
<!DOCTYPE svg PUBLIC "-//W3C//DTD SVG 1.1//EN" "http://www.w3.org/Graphics/SVG/1.1/DTD/svg11.dtd">
<svg version="1.1" id="Layer_1" xmlns="http://www.w3.org/2000/svg" xmlns:xlink="http://www.w3.org/1999/xlink" x="0px" y="0px"
	 width="2048px" height="2048px" viewBox="0 0 2048 2048" enable-background="new 0 0 2048 2048" xml:space="preserve">
<circle fill="#8A57A3" stroke="#000000" stroke-miterlimit="10" cx="1024" cy="1024" r="1024"/>
<path fill="#FFFFFF" d="M807.969,1010.791l-397.122,397.124c-5.681,5.682-12.215,8.52-19.601,8.52s-13.919-2.838-19.6-8.52
	l-42.61-42.611c-5.682-5.68-8.522-12.213-8.522-19.6c0-7.385,2.84-13.918,8.522-19.6l334.912-334.913L329.036,656.278
	c-5.681-5.682-8.522-12.215-8.522-19.601s2.841-13.919,8.522-19.6l42.61-42.611c5.681-5.681,12.214-8.522,19.6-8.522
	s13.92,2.841,19.601,8.522L807.969,971.59c5.682,5.681,8.522,12.215,8.522,19.601S813.651,1005.11,807.969,1010.791z
	 M1727.486,1400.242v54.543c0,7.953-2.557,14.488-7.67,19.6c-5.111,5.113-11.647,7.67-19.599,7.67H882.111
	c-7.956,0-14.488-2.557-19.601-7.67c-5.114-5.111-7.67-11.646-7.67-19.6v-54.543c0-7.951,2.557-14.486,7.67-19.6
	c5.113-5.111,11.646-7.668,19.601-7.668h818.106c7.951,0,14.487,2.557,19.599,7.668
	C1724.93,1385.756,1727.486,1392.291,1727.486,1400.242z"/>
</svg>
