<?xml version="1.0" encoding="utf-8"?>
<!-- Generator: Adobe Illustrator 16.0.4, SVG Export Plug-In . SVG Version: 6.00 Build 0)  -->
<!DOCTYPE svg PUBLIC "-//W3C//DTD SVG 1.1//EN" "http://www.w3.org/Graphics/SVG/1.1/DTD/svg11.dtd">
<svg version="1.1" id="Layer_1" xmlns="http://www.w3.org/2000/svg" xmlns:xlink="http://www.w3.org/1999/xlink" x="0px" y="0px"
	 width="2048px" height="2048px" viewBox="0 0 2048 2048" enable-background="new 0 0 2048 2048" xml:space="preserve">
<circle fill="#8A57A3" stroke="#000000" stroke-miterlimit="10" cx="1024" cy="1024" r="1024"/>
<g>
	<path fill="#FFFFFF" d="M1616.618,1306.572c-7.964-7.964-18.44-12.173-30.298-12.173h-680.31c-11.854,0-22.331,4.208-30.3,12.172
		c-7.967,7.965-12.178,18.443-12.178,30.301v45.355c0,11.861,4.212,22.341,12.178,30.301c7.969,7.966,18.446,12.177,30.3,12.177
		h680.31c11.86,0,22.338-4.213,30.293-12.173c7.972-7.966,12.185-18.444,12.185-30.305v-45.355
		C1628.798,1325.011,1624.584,1314.531,1616.618,1306.572z"/>
	<path fill="#FFFFFF" d="M858.354,966.417L528.122,636.185c-8.429-8.432-18.906-12.888-30.301-12.888s-21.873,4.457-30.298,12.886
		l-35.437,35.435c-8.429,8.431-12.883,18.907-12.883,30.299c0,11.389,4.454,21.865,12.885,30.3l264.503,264.502l-264.499,264.501
		c-8.432,8.428-12.889,18.906-12.889,30.303c0,11.392,4.456,21.87,12.886,30.297l35.434,35.436
		c8.427,8.427,18.904,12.882,30.299,12.882c11.396,0,21.874-4.455,30.3-12.882l330.228-330.232
		c8.434-8.429,12.892-18.907,12.892-30.304S866.784,974.843,858.354,966.417z"/>
</g>
</svg>
